<svg xmlns="http://www.w3.org/2000/svg" viewBox="0 0 100 100" fill="#E21C21">
  <title>Huawei Logo</title>
  <path d="M50,10 C60,20 80,45 80,50 C80,55 60,80 50,90 C40,80 20,55 20,50 C20,45 40,20 50,10 Z" transform="rotate(15 50 50)"/>
  <path d="M50,10 C60,20 80,45 80,50 C80,55 60,80 50,90 C40,80 20,55 20,50 C20,45 40,20 50,10 Z" transform="rotate(60 50 50)"/>
  <path d="M50,10 C60,20 80,45 80,50 C80,55 60,80 50,90 C40,80 20,55 20,50 C20,45 40,20 50,10 Z" transform="rotate(105 50 50)"/>
  <path d="M50,10 C60,20 80,45 80,50 C80,55 60,80 50,90 C40,80 20,55 20,50 C20,45 40,20 50,10 Z" transform="rotate(150 50 50)"/>
  <path d="M50,10 C60,20 80,45 80,50 C80,55 60,80 50,90 C40,80 20,55 20,50 C20,45 40,20 50,10 Z" transform="rotate(195 50 50)"/>
  <path d="M50,10 C60,20 80,45 80,50 C80,55 60,80 50,90 C40,80 20,55 20,50 C20,45 40,20 50,10 Z" transform="rotate(240 50 50)"/>
  <path d="M50,10 C60,20 80,45 80,50 C80,55 60,80 50,90 C40,80 20,55 20,50 C20,45 40,20 50,10 Z" transform="rotate(285 50 50)"/>
  <path d="M50,10 C60,20 80,45 80,50 C80,55 60,80 50,90 C40,80 20,55 20,50 C20,45 40,20 50,10 Z" transform="rotate(330 50 50)"/>
</svg>
