<svg viewBox="0 0 100 100" xmlns="http://www.w3.org/2000/svg" fill="#E21C21">
    <title>Huawei Logo</title>
    <g transform="translate(50,50)">
      <path d="M-6.4,36.5C-11,28.4-15.1,19.6-18.4,10.5h36.9c-3.4,9.1-7.4,17.9-12,26C2.1,43.2-2.1,43.2-6.4,36.5z" transform="rotate(22.5) scale(1.2)"/>
      <path d="M-6.4,36.5C-11,28.4-15.1,19.6-18.4,10.5h36.9c-3.4,9.1-7.4,17.9-12,26C2.1,43.2-2.1,43.2-6.4,36.5z" transform="rotate(67.5) scale(1.2)"/>
      <path d="M-6.4,36.5C-11,28.4-15.1,19.6-18.4,10.5h36.9c-3.4,9.1-7.4,17.9-12,26C2.1,43.2-2.1,43.2-6.4,36.5z" transform="rotate(112.5) scale(1.2)"/>
      <path d="M-6.4,36.5C-11,28.4-15.1,19.6-18.4,10.5h36.9c-3.4,9.1-7.4,17.9-12,26C2.1,43.2-2.1,43.2-6.4,36.5z" transform="rotate(157.5) scale(1.2)"/>
      <path d="M-6.4,36.5C-11,28.4-15.1,19.6-18.4,10.5h36.9c-3.4,9.1-7.4,17.9-12,26C2.1,43.2-2.1,43.2-6.4,36.5z" transform="rotate(202.5) scale(1.2)"/>
      <path d="M-6.4,36.5C-11,28.4-15.1,19.6-18.4,10.5h36.9c-3.4,9.1-7.4,17.9-12,26C2.1,43.2-2.1,43.2-6.4,36.5z" transform="rotate(247.5) scale(1.2)"/>
      <path d="M-6.4,36.5C-11,28.4-15.1,19.6-18.4,10.5h36.9c-3.4,9.1-7.4,17.9-12,26C2.1,43.2-2.1,43.2-6.4,36.5z" transform="rotate(292.5) scale(1.2)"/>
      <path d="M-6.4,36.5C-11,28.4-15.1,19.6-18.4,10.5h36.9c-3.4,9.1-7.4,17.9-12,26C2.1,43.2-2.1,43.2-6.4,36.5z" transform="rotate(337.5) scale(1.2)"/>
    </g>
</svg>